<?xml version="1.0" encoding="UTF-8"?><svg id="_イヤー_1" xmlns="http://www.w3.org/2000/svg" viewBox="0 0 399.69 119.06"><defs><style>.cls-1{fill:#fff;}.cls-2{fill:#32363b;}.cls-3{fill:#4267b2;}.cls-4{fill:#1877f2;}</style></defs><path class="cls-4" d="M1300.67-480.61c0-282.77-229.23-512-512-512S276.67-763.38,276.67-480.61c0,255.55,187.23,467.37,432,505.78V-332.61h-130v-148h130v-112.8c0-128.32,76.44-199.2,193.39-199.2,56.02,0,114.61,10,114.61,10v126h-64.56c-63.6,0-83.44,39.47-83.44,79.96v96.04h142l-22.7,148h-119.3V25.16c244.77-38.41,432-250.22,432-505.78Z"/><rect class="cls-4" width="399.69" height="119.06"/><g><path class="cls-1" d="M113.05,31.87c-.6,.92-1.61,2.17-2.69,3.05-.27,.22-.43,.25-.56,.25-.49,0-.88-.48-.88-.94,0-.25,.15-.43,.36-.62,1.01-.88,1.93-1.67,2.84-3.22,.13-.21,.63-1.16,.76-1.34,.13-.2,.25-.25,.49-.25,.48,0,.87,.32,.87,.66,0,.46-.98,2.09-1.19,2.41Zm2.63,9.16c-1.06,.1-5.01,.38-5.6,.38-.24,0-.76,0-.76-.78,0-.66,.52-.69,.74-.7,.56-.01,.62-.03,1.13-.04,1.04-1.99,1.85-4.06,2.59-6.18,.17-.46,.29-.66,.74-.66,.36,0,.9,.17,.9,.67,0,.39-1.41,3.92-2.58,6.08,1.93-.11,3.85-.28,5.79-.55-.5-.74-.6-.88-1.65-2.27-.21-.27-.24-.42-.24-.55,0-.42,.43-.76,.87-.76,.29,0,.46,.15,.66,.39,1.29,1.56,1.37,1.68,2.49,3.45,.66,1.05,.73,1.29,.73,1.56,0,.49-.55,.78-.97,.78-.24,0-.41-.08-.52-.22-.11-.14-.5-.92-.6-1.11-1.96,.31-2.2,.35-3.73,.5Zm6.09-7.3c.15,.14,.29,.32,.29,.56,0,.42-.38,.91-.84,.91-.21,0-.39-.04-1.12-.74-1.98-1.89-3.35-4.47-3.35-4.99,0-.41,.43-.66,.81-.66s.52,.18,.67,.48c1.15,2.14,2.1,3.15,2.51,3.52l1.02,.92Z"/><path class="cls-1" d="M134.57,40.11h.76c.17,0,.71,0,.71,.64,0,.5-.21,.7-.71,.7h-11.58c-.18,0-.73,0-.73-.63,0-.5,.21-.71,.73-.71h.71v-3.42c0-.14,0-.24,.01-.39-.36,.24-.52,.34-.76,.34-.5,0-.77-.48-.77-.85,0-.2,.07-.38,.36-.57,1.2-.78,1.62-1.06,2.45-1.89,.59-.6,.87-1.09,.95-1.26h-3.11c-.21,0-.69,0-.69-.67,0-.62,.36-.7,.69-.7h2.63c-.06-.15-.11-.31-.29-.62-.28-.48-.29-.59-.29-.71,0-.46,.5-.62,.91-.62s.6,.28,.69,.42c.21,.39,.59,1.19,.71,1.53h3.07c.13-.21,.43-.73,.73-1.43,.1-.24,.21-.52,.73-.52s.88,.25,.88,.64c0,.22-.04,.27-.63,1.3h2.7c.22,0,.69,.01,.69,.69,0,.62-.38,.69-.69,.69h-3.15c.98,1.58,2.23,2.33,3.42,3.04,.22,.13,.35,.31,.35,.56,0,.35-.24,.85-.74,.85-.21,0-.42-.11-.78-.35,.04,.22,.04,.38,.04,.53v3.42Zm-1.27-4.83c-1.13-.91-2.09-1.98-2.66-3.22h-2.24c-.59,1.26-1.54,2.33-2.61,3.22h7.51Zm-5.87,4.83v-3.56h-1.16c-.28,0-.39,.14-.39,.39v3.17h1.55Zm2.84-3.56h-1.58v3.56h1.58v-3.56Zm1.27,3.56h1.6v-3.17c0-.22-.08-.39-.39-.39h-1.2v3.56Z"/><path class="cls-1" d="M141.35,30.93c.48,0,1.25,.08,1.25,1.06,0,.43-.08,1.06-1.3,2.65,.1,.11,.49,.57,1.16,1.18,.57,.52,.63,.57,.63,.83,0,.32-.29,.74-.7,.74-.25,0-.43-.14-.64-.35-.29-.31-.63-.74-.84-1.04v5.18c0,.57-.28,.73-.8,.73-.62,0-.67-.43-.67-.73v-4.58c-.45,.39-1.11,.95-1.5,.95s-.74-.43-.74-.84c0-.2,.08-.36,.21-.5,.06-.07,.9-.66,1.05-.77,1.53-1.08,2.52-2.66,2.52-2.93,0-.24-.24-.24-.41-.24h-2.52c-.31,0-.74-.07-.74-.69,0-.66,.56-.66,.74-.66h1.37v-1.5c0-.55,.24-.73,.78-.73,.67,0,.69,.52,.69,.73v1.5h.46Zm8.01,1.64c.2,0,.76,.01,.76,.69,0,.55-.21,.78-.76,.78h-2.24v5.95h2.49c.18,0,.77,0,.77,.67,0,.56-.25,.76-.77,.76h-6.67c-.21,0-.83,0-.83-.67,0-.59,.31-.76,.83-.76h2.65v-5.95h-2.09c-.18,0-.74,0-.74-.7,0-.59,.27-.77,.74-.77h2.09v-3.11c0-.28,.06-.74,.7-.74,.57,0,.83,.18,.83,.74v3.11h2.24Z"/><path class="cls-1" d="M163.84,39.71c0,1.37-.53,1.85-1.85,1.85h-8.29c-1.27,0-1.85-.43-1.85-1.85v-8.59c0-1.43,.59-1.85,1.85-1.85h8.29c1.27,0,1.85,.43,1.85,1.85v8.59Zm-1.46-8.38c0-.45-.2-.69-.67-.69h-7.7c-.52,0-.69,.28-.69,.69v8.17c0,.43,.2,.69,.69,.69h7.7c.5,0,.67-.28,.67-.69v-8.17Zm-1.9,7.03c0,.5,0,1.23-.78,1.4-.28,.06-1.05,.06-1.57,.06-.57,0-1.01,0-1.01-.66s.45-.63,.63-.63c.13,0,.71,.03,.83,.03,.42,0,.53-.17,.53-.46v-4.17h-4.89c-.29,0-.69-.06-.69-.62,0-.46,.15-.67,.69-.67h4.89v-1.13c0-.57,.32-.69,.66-.69,.38,0,.71,.07,.71,.69v1.13h.99c.34,0,.69,.08,.69,.62,0,.43-.14,.67-.69,.67h-.99v4.44Zm-4.17-2.82c.34,.43,.99,1.33,.99,1.72,0,.49-.55,.69-.78,.69-.32,0-.36-.08-.84-.87-.24-.39-.6-.85-.95-1.33-.14-.18-.27-.35-.27-.57,0-.34,.34-.62,.73-.62,.24,0,.36,0,1.12,.98Z"/><path class="cls-1" d="M167.82,39.32c-.62,1.19-1.09,1.96-1.27,2.17-.11,.14-.25,.25-.48,.25-.41,0-.8-.35-.8-.71,0-.28,.07-.38,.71-1.34,.66-1.01,1.29-2.4,1.55-2.98,.1-.22,.21-.46,.57-.46,.32,0,.71,.24,.71,.63,0,.43-.73,1.91-1.01,2.45Zm-1.83-6.78c.41,0,1.36,.66,1.81,.98,.57,.42,.67,.57,.67,.81,0,.35-.31,.81-.73,.81-.2,0-.29-.06-1.08-.64-.15-.13-.91-.6-1.06-.71-.24-.15-.28-.25-.28-.56,0-.25,.27-.69,.67-.69Zm.46-3.63c.36,0,1.19,.53,1.6,.78,.87,.56,.98,.67,.98,.98,0,.39-.34,.83-.71,.83-.2,0-.28-.06-1.11-.62-.18-.13-1.02-.62-1.19-.73-.15-.1-.27-.21-.27-.52,0-.28,.28-.73,.7-.73Zm3.18,6.98c-.2,0-.73,0-.73-.69,0-.62,.42-.69,.73-.69h3.26v-2.38h-2.7c-.24,0-.73-.01-.73-.69,0-.55,.32-.7,.73-.7h2.7v-1.3c0-.24,.03-.71,.69-.71,.53,0,.78,.15,.78,.71v1.3h2.87c.22,0,.73,.03,.73,.7,0,.6-.39,.69-.73,.69h-2.87v2.38h3.32c.24,0,.73,.03,.73,.69,0,.59-.36,.69-.73,.69h-4.43c-.62,1.64-1.36,3.25-1.78,4.05,1.26-.07,2.9-.15,4.4-.34-.36-.59-.43-.67-1.08-1.6-.17-.24-.2-.36-.2-.49,0-.39,.41-.64,.74-.64,.28,0,.45,.07,1.09,.95,.63,.88,1.86,2.77,1.86,3.29,0,.39-.42,.71-.83,.71s-.53-.24-.62-.41-.21-.45-.31-.62c-2.24,.36-6.82,.64-7.09,.64-.17,0-.74,0-.74-.74,0-.7,.6-.7,.83-.7h.32c.98-2,1.39-2.87,1.79-4.12h-2.03Z"/><path class="cls-1" d="M185.28,29.54c0-.21,0-.78,.81-.78s.83,.53,.83,.78v1.33c0,1.79,.39,4.55,1.92,6.57,1.19,1.57,2.76,2.44,3.22,2.69,.27,.14,.56,.32,.56,.73,0,.32-.25,.91-.85,.91s-2.13-1.27-2.77-1.88c-.84-.81-2.19-2.24-2.89-5.34-.69,2.98-1.92,4.36-2.75,5.17-.76,.74-2.33,2.04-2.94,2.04-.5,0-.85-.5-.85-.92,0-.35,.21-.5,.45-.64,2.21-1.25,4.09-2.75,4.99-6.51,.15-.64,.28-2.68,.28-2.82v-1.33Z"/><path class="cls-1" d="M195.55,38.37c-.1,1.78-.39,2.7-.46,2.9-.11,.31-.24,.53-.6,.53s-.69-.21-.69-.59c0-.17,.29-1.16,.34-1.36,.15-.77,.24-1.71,.24-2.58v-4.02c0-1.13,.25-1.44,1.44-1.44h.84c1.16,0,1.44,.28,1.44,1.44v7.17c0,1.09-.39,1.37-1.26,1.37-.18,0-.63,0-.76-.03-.36-.07-.49-.45-.49-.73,0-.63,.36-.63,.7-.63,.46,0,.63,0,.63-.43v-1.61h-1.37Zm7.8,2.06c0,1.29-.43,1.37-1.68,1.37-.52,0-1.02,0-1.02-.7,0-.06,0-.22,.1-.39-.66,.28-1.6,.7-1.88,.7-.39,0-.55-.41-.55-.66,0-.36,.08-.39,1.06-.77,.06-.03,1.2-.5,1.36-.57,.18-.07,.34-.14,.48-.14,.29,0,.52,.25,.52,.6s-.24,.48-.56,.64h.6c.27-.03,.32-.22,.32-.41v-3.14c0-.17,0-.64,.62-.64s.63,.48,.63,.64v.49c.21,.35,.35,.56,.5,.76-.01-.21,.04-.31,.07-.35,.08-.15,.66-.7,.77-.83-.31-.36-.59-.76-.83-1.2h-2.12c-.31,.45-.64,.88-1.04,1.26,.21,.18,.45,.38,.76,.71,.14,.14,.21,.24,.21,.42,0,.34-.36,.6-.64,.6-.17,0-.32-.1-.43-.21-.53-.53-.59-.59-.76-.74-.1,.07-.64,.48-.97,.48s-.6-.35-.6-.66c0-.27,.2-.43,.28-.49,1.25-.85,1.39-.95,1.74-1.37h-1.32c-.34,0-.62-.13-.62-.56,0-.38,.21-.56,.62-.56h2.09c.24-.46,.32-.69,.36-.83h-2.2c-.25,0-.62-.04-.62-.53,0-.24,.08-.5,.48-.5h.73c-.04-.11-.1-.25-.14-.34-.07-.15-.13-.31-.13-.43,0-.42,.35-.5,.63-.5,.39,0,.46,.04,.91,1.27h.59c.07-.36,.18-.95,.22-1.06,.08-.21,.27-.25,.36-.28-.14-.1-.2-.2-.2-.43v-.28h-3.35v.35c0,.49-.42,.56-.69,.56-.69,0-.74-.31-.74-.56v-.35h-2.77c-.17,0-.71,0-.71-.59,0-.55,.45-.6,.71-.6h2.77v-.27c0-.17,0-.6,.67-.6,.53,0,.76,.15,.76,.6v.27h3.35v-.27c0-.15,0-.6,.67-.6,.55,0,.76,.18,.76,.6v.27h2.8c.15,0,.71,0,.71,.59,0,.55-.46,.6-.71,.6h-2.8v.28c0,.46-.35,.52-.6,.55,.13,.1,.2,.18,.2,.43,0,.11-.03,.36-.13,.8h.9c.1-.18,.48-.94,.59-1.06,.11-.14,.25-.22,.49-.22,.39,0,.66,.2,.66,.43,0,.21-.03,.28-.38,.85h.88c.36,0,.55,.18,.55,.5,0,.38-.21,.53-.6,.53h-2.03c.14,.38,.25,.62,.36,.83h1.93c.34,0,.63,.13,.63,.56,0,.39-.22,.56-.63,.56h-1.16c.32,.36,.6,.63,.88,.83,.9,.63,.95,.67,.95,.98,0,.35-.28,.7-.66,.7-.18,0-.31-.03-.81-.45-.7,.78-.85,.85-1.06,.85-.08,0-.14-.03-.2-.04,.78,.85,1.23,1.09,2.4,1.72,.14,.07,.28,.21,.28,.45,0,.34-.22,.69-.6,.69-.59,0-2.1-1.06-2.98-2.2v1.06Zm-7.77-5.81h1.34v-1.12c0-.25-.11-.39-.38-.39h-.59c-.24,0-.38,.11-.38,.39v1.12Zm1.34,1.09h-1.34v1.57h1.34v-1.57Zm5.7-1.82c-.11,.32-.2,.53-.36,.91h1.13c-.15-.38-.2-.52-.31-.91h-.46Z"/><path class="cls-1" d="M210.12,40.41c-.78,1.32-.97,1.32-1.2,1.32-.38,0-.78-.34-.78-.71,0-.22,.17-.48,.57-1.06,.36-.55,.9-1.46,1.64-3.18,.14-.31,.27-.5,.6-.5,.27,0,.66,.17,.71,.56,.07,.45-.87,2.45-1.54,3.59Zm.04-7.21c1.04,.71,1.15,.8,1.15,1.15,0,.31-.27,.78-.71,.78-.22,0-.29-.04-.91-.5-.35-.25-.97-.62-1.32-.88-.14-.1-.21-.27-.21-.45,0-.38,.28-.7,.62-.76,.35-.06,1.04,.41,1.39,.66Zm1.08-3.29c.42,.28,.63,.45,.63,.81,0,.34-.27,.78-.7,.78-.2,0-.28-.06-1.02-.56-.2-.13-1.12-.67-1.3-.8-.08-.06-.24-.2-.24-.46,0-.21,.15-.76,.74-.76,.41,0,1.67,.83,1.89,.98Zm6.51,5.28c.62,2.73,1.85,4.15,3.19,5.22,.27,.21,.32,.32,.32,.52,0,.43-.42,.88-.81,.88-.46,0-1.25-.8-1.71-1.33-1.69-1.99-2.2-4.03-2.45-5.29h-2.04c-.03,.91-.13,3.57-1.42,5.69-.57,.95-.85,.95-1.06,.95-.49,0-.85-.41-.85-.74,0-.21,.08-.32,.38-.76,.49-.73,1.5-2.25,1.5-5.31v-4.19c0-1.2,.5-1.55,1.57-1.55h4.79c1.06,0,1.56,.35,1.56,1.55v2.8c0,1.19-.49,1.55-1.56,1.55h-1.4Zm-3.49-1.37h4.43c.35,0,.55-.17,.55-.55v-2.09c0-.36-.17-.56-.55-.56h-3.88c-.38,0-.55,.2-.55,.56v2.63Z"/><path class="cls-1" d="M229.48,41.21c0,.27-.01,.74-.71,.74-.59,0-.8-.21-.8-.7v-6.7h-2.54c-.34,0-.57,.15-.57,.57v5.14c0,.24-.01,.71-.76,.71-.67,0-.76-.38-.76-.71v-5.46c0-1.29,.55-1.65,1.64-1.65h2.98v-1.47h-5.1c-.18,0-.7,0-.7-.71,0-.6,.36-.71,.7-.71h5.08v-.91c0-.39,.17-.67,.71-.67s.84,.13,.84,.67v.91h5.11c.21,0,.69,.03,.69,.67,0,.52-.18,.76-.69,.76h-5.14v1.47h3.04c1.09,0,1.65,.36,1.65,1.65v4.43c0,1.58-.87,1.58-2.12,1.58-.99,0-1.48,0-1.48-.84,0-.69,.42-.69,.88-.69h.77c.35-.06,.42-.28,.42-.57v-3.59c0-.39-.21-.57-.57-.57h-2.59v6.65Z"/><path class="cls-1" d="M242.23,29.67c.27,0,.62,.08,.62,.55,0,.34-.1,.63-.62,.63h-1.58c-.14,.49-.21,.69-.32,1.01h2.2c.39,0,.62,.17,.62,.59,0,.39-.17,.6-.62,.6h-2.73c-.29,.57-.45,.83-.74,1.26h1.13c.1-.15,.14-.22,.45-.87,.07-.15,.17-.36,.55-.36s.62,.25,.62,.5c0,.18-.22,.53-.35,.73h.92c.18,0,.49,.1,.49,.52,0,.35-.13,.57-.56,.57h-1.26v1.01h1.01c.31,0,.55,.11,.55,.49s-.11,.56-.55,.56h-1.01v.99h1.01c.31,0,.55,.1,.55,.48,0,.35-.1,.56-.55,.56h-1.01v1.04h1.16c.28,0,.39,.08,.49,.2,.66-.66,.9-.9,1.18-1.64,.28-.77,.34-1.44,.36-1.93-.73-.13-.98-.56-.98-1.39v-5.27c0-1.11,.48-1.42,1.41-1.42h2.77c.97,0,1.42,.34,1.42,1.42v5.27c0,1.23-.62,1.42-1.46,1.42v2.82c0,.41,.15,.41,.56,.41,.32,0,.35-.13,.39-.94,.04-.74,.04-.94,.46-.94,.48,0,.55,.34,.55,.73,0,.52-.07,1.42-.25,1.89-.24,.62-.83,.62-1.47,.62-1.3,0-1.51-.35-1.51-1.46v-3.12h-.7c-.04,2.07-.69,3.73-1.85,4.55-.1,.08-.22,.14-.41,.14-.24,0-.43-.13-.57-.32-.07,.06-.15,.11-.39,.11h-3.59c-.99,0-1.4-.38-1.4-1.42v-3.89c-.14,.1-.25,.18-.43,.18-.39,0-.67-.42-.67-.77,0-.27,.11-.36,.53-.74,.77-.69,1.25-1.23,1.72-1.98h-1.46c-.32,0-.63-.11-.63-.59,0-.42,.22-.6,.63-.6h2.09c.15-.39,.24-.67,.34-1.01h-.94c-.57,.8-.73,.92-1.01,.92-.42,0-.67-.39-.67-.63,0-.2,.04-.25,.5-.81,.31-.38,.49-.7,.78-1.25,.1-.17,.24-.42,.63-.42,.32,0,.66,.2,.66,.52,0,.15-.07,.32-.15,.49h3.1Zm-2.35,6.74v-1.01h-.98c-.34,0-.39,.21-.39,.39v.62h1.37Zm0,1.05h-1.37v.99h1.37v-.99Zm0,3.07v-1.04h-1.37v.71c0,.18,.07,.32,.31,.32h1.06Zm4.72-9.06h2.87v-.78c0-.2-.07-.39-.39-.39h-2.09c-.32,0-.39,.21-.39,.39v.78Zm2.87,1.06h-2.87v1.12h2.87v-1.12Zm-2.87,2.2v.88c0,.22,.1,.39,.39,.39h2.09c.35,0,.39-.24,.39-.39v-.88h-2.87Z"/><path class="cls-1" d="M259.21,39.63c0,.56,.32,.56,1.11,.56,.38,0,.95,0,1.12-.03,.43-.1,.49-.53,.59-1.48,.06-.53,.1-.9,.71-.9,.81,0,.81,.55,.81,.76,0,.41-.14,1.78-.43,2.37-.38,.74-.87,.74-2.68,.74-.55,0-1.36-.01-1.62-.06-.9-.15-1.09-.77-1.09-1.61v-4.96h-1.65c-.03,1.01-.08,3.29-1.5,4.86-1.2,1.36-2.87,1.92-3.26,1.92-.46,0-.8-.46-.8-.9s.14-.48,1.13-.85c2.45-.92,2.9-2.68,2.94-5.03h-3.49c-.18,0-.7,0-.7-.69s.45-.71,.7-.71h5.13v-4.17c0-.2,0-.71,.76-.71,.8,0,.8,.5,.8,.71v4.17h5.18c.22,0,.7,.01,.7,.7,0,.6-.35,.7-.7,.7h-3.75v4.61Zm-6.25-7.27c-.27-.49-.77-1.25-1.06-1.74-.13-.2-.2-.34-.2-.52,0-.43,.48-.69,.83-.69,.42,0,.6,.25,1.21,1.16,.32,.48,.94,1.4,.94,1.81,0,.5-.57,.73-.85,.73-.36,0-.5-.13-.85-.76Zm6.46,.11c0-.24,.07-.39,.49-.94,.24-.31,.76-1.15,.9-1.4,.29-.56,.45-.77,.87-.77s.84,.32,.84,.71c0,.43-.95,1.79-1.32,2.3-.55,.74-.71,.76-1.02,.76-.25,0-.76-.22-.76-.66Z"/><path class="cls-1" d="M267.15,31.95h.69c.42,0,.59,.34,.59,.7,0,.25-.07,.74-.59,.74h-.69v7.91c0,.21-.01,.66-.66,.66-.59,0-.74-.21-.74-.66v-7.91h-.64c-.55,0-.67-.39-.67-.71,0-.41,.18-.73,.67-.73h.64v-2.62c0-.2,.01-.66,.66-.66,.49,0,.74,.15,.74,.66v2.62Zm1.09,5.01c-.2,0-.66,0-.66-.67s.42-.69,.66-.69h.71c.01-.66,.01-.69,.07-.81,.11-.22,.38-.28,.56-.28,.66,0,.63,.45,.6,1.09h.67c.46,0,.77,0,1.08,.27,.31,.27,.32,.6,.32,1.04,0,1.02-.13,3.07-.45,4.02-.29,.87-.84,.87-1.57,.87-.39,0-.85,0-.85-.69,0-.11,0-.67,.46-.67,.53,0,.71,0,.84-.36,.24-.67,.38-1.95,.38-2.65,0-.43-.1-.46-.53-.46h-.45c-.1,.76-.29,2.28-1.06,3.82-.5,.99-.67,1.02-.91,1.02-.36,0-.71-.25-.71-.63,0-.17,.04-.28,.18-.52,.62-.98,1.02-1.67,1.27-3.7h-.62Zm.92-5.83c-.17,0-.69,0-.69-.64s.48-.64,.69-.64h2.59c.03-.13,.11-.7,.15-.83,.1-.28,.41-.35,.67-.35,.45,0,.74,.14,.74,.55,0,.18-.06,.46-.08,.63h1.95c.71,0,1.43,.06,1.43,1.27,0,.46-.08,1.91-.39,2.48-.34,.63-.81,.63-2,.63-.66,0-.78,0-.94-.07-.31-.13-.36-.46-.36-.63,0-.66,.48-.66,.81-.66,.91,0,1.01,0,1.13-.1,.27-.2,.31-.97,.31-1.29,0-.35-.21-.35-.56-.35h-1.71c-.34,.91-.81,1.75-1.96,2.59-.53,.38-1.32,.8-1.67,.8-.45,0-.74-.42-.74-.8,0-.31,.18-.43,.45-.57,1.12-.55,1.85-.91,2.4-2.02h-2.21Zm4.03,5.83c-.21,0-.66,0-.66-.67,0-.6,.34-.69,.66-.69h.62c.03-.8,.04-1.09,.63-1.09,.64,0,.64,.39,.63,1.09h.8c.41,0,.94,0,1.19,.48,.1,.17,.18,.42,.18,1.18,0,.25-.07,2.79-.31,3.61-.25,.92-.74,.92-1.57,.92-.53,0-1.04,0-1.04-.74,0-.63,.41-.63,.56-.63,.46,0,.71,0,.84-.27,.2-.42,.28-2.27,.28-2.76,0-.38-.11-.43-.48-.43h-.55c-.07,.76-.29,2.84-1.61,4.59-.11,.15-.22,.27-.49,.27-.41,0-.73-.32-.73-.63,0-.18,.08-.31,.21-.5,.46-.67,1.11-1.72,1.36-3.73h-.53Z"/><path class="cls-1" d="M282.08,33.9c-.39,0-.76-.13-.73-.73-.55,.32-1.72,.99-2.17,.99-.39,0-.71-.42-.71-.88s.28-.59,.64-.73c2.2-.81,3.4-2,4.51-3.11,.73-.73,.84-.84,1.46-.84s.8,.17,1.44,.84c.83,.85,2.06,2.13,4.55,3.17,.36,.15,.62,.28,.62,.7,0,.46-.32,.88-.76,.88s-1.58-.69-2.07-.98c0,.64-.46,.69-.71,.69h-6.06Zm1.96,2.89c-.42,1.01-.8,1.77-1.6,3.12,2.2-.08,2.56-.11,5.83-.31-.36-.43-.39-.48-1.16-1.27-.25-.25-.31-.41-.31-.59,0-.35,.41-.69,.78-.69,.31,0,.48,.17,.92,.62,.42,.41,1.2,1.22,2.09,2.38,.39,.53,.5,.73,.5,.97,0,.39-.49,.77-.91,.77-.25,0-.39-.14-.48-.27-.07-.1-.41-.6-.49-.71-2.51,.22-3.38,.29-6.15,.46-.52,.03-3.05,.17-3.42,.17-.2,0-.74,0-.74-.74,0-.17,.06-.55,.36-.66,.14-.04,1.3-.07,1.55-.07,.6-1.02,1.19-2.06,1.57-3.18h-2.91c-.43,0-.73-.15-.73-.73,0-.67,.56-.67,.73-.67h11.15c.45,0,.73,.17,.73,.73,0,.67-.56,.67-.73,.67h-6.6Zm3.87-4.22c-.74-.52-1.7-1.32-2.44-2.17-.17-.21-.25-.28-.38-.28s-.2,.08-.36,.28c-.59,.67-1.53,1.54-2.45,2.17h5.63Z"/><path class="cls-1" d="M296.9,31.87c-.6,.92-1.61,2.17-2.69,3.05-.27,.22-.43,.25-.56,.25-.49,0-.88-.48-.88-.94,0-.25,.15-.43,.36-.62,1.01-.88,1.93-1.67,2.84-3.22,.13-.21,.63-1.16,.76-1.34,.13-.2,.25-.25,.49-.25,.48,0,.87,.32,.87,.66,0,.46-.98,2.09-1.19,2.41Zm2.63,9.16c-1.06,.1-5.01,.38-5.6,.38-.24,0-.76,0-.76-.78,0-.66,.52-.69,.74-.7,.56-.01,.62-.03,1.13-.04,1.04-1.99,1.85-4.06,2.59-6.18,.17-.46,.29-.66,.74-.66,.36,0,.9,.17,.9,.67,0,.39-1.41,3.92-2.58,6.08,1.93-.11,3.85-.28,5.79-.55-.5-.74-.6-.88-1.65-2.27-.21-.27-.24-.42-.24-.55,0-.42,.43-.76,.87-.76,.29,0,.46,.15,.66,.39,1.29,1.56,1.37,1.68,2.49,3.45,.66,1.05,.73,1.29,.73,1.56,0,.49-.55,.78-.97,.78-.24,0-.41-.08-.52-.22-.11-.14-.5-.92-.6-1.11-1.96,.31-2.2,.35-3.73,.5Zm6.09-7.3c.15,.14,.29,.32,.29,.56,0,.42-.38,.91-.84,.91-.21,0-.39-.04-1.12-.74-1.98-1.89-3.35-4.47-3.35-4.99,0-.41,.43-.66,.81-.66s.52,.18,.67,.48c1.15,2.14,2.1,3.15,2.51,3.52l1.02,.92Z"/><path class="cls-1" d="M309.89,35.74h-1.98c-.27,0-.71-.04-.71-.7,0-.5,.24-.7,.71-.7h5.44c.27,0,.71,.04,.71,.7,0,.57-.34,.7-.71,.7h-1.98v3.71c.78-.13,.92-.15,2.16-.38,.22-.04,.36-.06,.41-.06,.5,0,.57,.5,.57,.73,0,.56-.28,.62-1.29,.83-2.17,.45-5.28,.85-5.67,.85-.64,0-.66-.74-.66-.81,0-.62,.46-.67,.83-.71,1.15-.11,1.77-.2,2.17-.24v-3.92Zm9.46-4.64c.2,0,.73,.01,.73,.67,0,.5-.24,.73-.73,.73h-3.53c.01,1.15,.06,2.89,.62,5,.36,1.34,1.11,2.62,1.68,2.62,.34,0,.55-.35,.71-1.08,.1-.41,.18-.74,.69-.74,.13,0,.67,.03,.67,.63,0,.1-.35,2.91-2,2.91-1.27,0-2.12-1.37-2.49-2.1-1.09-2.1-1.29-5.31-1.4-7.24h-6.64c-.24,0-.73-.04-.73-.67,0-.49,.21-.73,.73-.73h6.6c0-.24-.03-1.34-.03-1.51,0-.34,0-.83,.77-.83s.78,.45,.78,.84v.24c0,.2,.01,1.08,.01,1.26h3.56Zm-.57-1.43c.28,.28,.45,.49,.45,.74,0,.41-.5,.63-.81,.63s-.38-.07-1.16-.81c-.39-.36-.53-.5-.53-.76,0-.32,.31-.62,.8-.62,.38,0,1.13,.7,1.26,.81Z"/></g><g><path class="cls-1" d="M329.01,81.07c.06-.14,.17-.46,.69-.46,.31,0,.8,.14,.8,.64,0,.1-.01,.24-.07,.56-.22,1.12-.57,2.91-.57,5.42,0,1.93,.24,3.05,.45,4.06,.06,.27,.07,.38,.07,.49,0,.52-.59,.63-.8,.63-.48,0-.66-.27-.74-.49-.17-.5-.5-1.86-.5-4.94,0-2.09,.43-5.22,.69-5.91Zm8.42,7.14c1.19,.45,2,.97,2.16,1.08,.31,.21,.43,.43,.43,.7,0,.39-.27,.8-.67,.8-.17,0-.31-.06-.64-.28-.35-.24-.77-.48-1.27-.7-.03,.69-.08,1.13-.27,1.48-.41,.77-1.36,1.09-2.44,1.09-1.86,0-3.1-.97-3.1-2.37,0-.99,.67-2.38,2.93-2.38,.42,0,.87,.07,1.34,.17l-.07-3.17c-.62,.03-1.01,.03-1.57,.03-2.23,0-2.65-.06-2.65-.81,0-.62,.32-.76,.84-.76,.32,0,1.74,.06,2.03,.06,.64,0,.97-.01,1.3-.03l-.04-1.9c-.01-.8,.6-.8,.79-.8,.56,0,.74,.32,.76,.78l.04,1.81c.27-.01,1.49-.17,1.68-.17,.62,0,.63,.64,.63,.76,0,.76-.35,.78-2.28,.94l.07,3.67Zm-2.9,.77c-.83,0-1.51,.34-1.51,1.01,0,.59,.57,1.04,1.53,1.04,1.39,0,1.39-.7,1.39-1.81-.48-.17-.85-.24-1.4-.24Z"/><path class="cls-1" d="M351.67,89.99c.15-.03,.28-.04,.39-.04,.73,0,.73,.73,.73,.83,0,.42-.18,.67-.55,.78-.83,.27-3.01,.36-4.26,.36-3.49,0-6.01-.56-6.01-2.93,0-.85,.52-2.2,1.32-2.2,.35,0,.71,.22,.71,.56,0,.15-.04,.21-.2,.53-.24,.46-.25,.7-.25,.87,0,.71,.35,1.57,4.38,1.57,1.65,0,2.41-.14,3.73-.34Zm-8.18-8.46c.32-.11,1.74-.17,2.79-.17,.49,0,3.95,.04,4.89,.43,.43,.18,.43,.56,.43,.69,0,.1,0,.83-.71,.83-.13,0-.17-.01-.5-.06-1.34-.2-2.54-.28-3.75-.28-.45,0-2.75,.13-2.84,.13-.77,0-.77-.59-.77-.83,0-.27,.08-.62,.48-.74Z"/><path class="cls-1" d="M357.58,86.81c.55-.29,2.03-1.11,4.03-1.11,3,0,3.98,1.75,3.98,3.17,0,.8-.31,2.21-1.99,2.98-1.08,.49-2.76,.66-4.08,.66-1.06,0-2.28-.1-2.77-.24-.24-.07-.46-.28-.46-.69s.28-.7,.66-.7c.14,0,.25,0,.55,.04,.66,.08,1.21,.14,1.98,.14,.7,0,4.55,0,4.55-2.25,0-.64-.39-1.77-2.49-1.77-1.79,0-3.45,.85-4.22,1.34-.63,.41-.71,.45-.9,.45-.42,0-.81-.32-.81-.71,0-.18,.22-.67,.39-1.06,.15-.39,.59-1.48,1.04-3.01-2.49,.01-2.89,.01-2.89-.8,0-.25,.1-.71,.69-.71,.34,0,1.81,.07,2.1,.07h.49c.07-.29,.35-1.57,.42-1.82,.08-.32,.2-.57,.71-.57,.39,0,.81,.18,.81,.59,0,.25-.31,1.37-.42,1.77,2.06-.08,3.68-.35,4.34-.46,.98-.17,1.09-.18,1.25-.18,.67,0,.67,.7,.67,.77,0,.56-.41,.66-1.12,.78-2.37,.41-5.2,.53-5.56,.55-.2,.63-.46,1.5-.95,2.79Z"/><path class="cls-1" d="M374.35,85.09c2.67,0,4.06,1.43,4.06,3.31,0,1.48-.9,2.8-2.51,3.4-.49,.18-1.58,.57-3.87,.57s-2.7-.21-2.7-.91c0-.38,.22-.71,.69-.71,.14,0,.74,.06,.87,.07,.59,.04,1.04,.06,1.3,.06,.83,0,4.65,0,4.65-2.54,0-1.82-2.12-1.82-2.51-1.82-1.43,0-3,.46-4.44,1.55-.6,.45-.67,.5-.97,.5-.32,0-.85-.18-.85-.8,0-.55,.64-3.68,.81-4.47,.11-.53,.21-.94,.78-.94,.35,0,.81,.14,.81,.6,0,.14-.01,.24-.21,1.06-.24,.99-.34,1.41-.53,2.49,.81-.52,2.56-1.44,4.61-1.44Zm-3.39-4.69c.27,0,1.72,.14,4.03,.81,.7,.2,1.09,.32,1.09,.85,0,.27-.13,.77-.67,.77-.14,0-1.01-.25-1.16-.29-1.16-.32-2.13-.49-3.32-.7-.42-.07-.74-.2-.74-.69,0-.32,.11-.76,.77-.76Z"/></g><g><path class="cls-1" d="M129.28,65.78h-.54c-.32-.09-.74-.2-1.26-.32-.52-.12-1.07-.18-1.66-.18-1.42,0-2.38,.26-2.89,.77-.5,.51-.75,1.5-.75,2.97v.18h5.59v4.92h-5.35v17.73h-7.28v-17.73h-3.11v-4.92h3.11v-.63c0-2.77,.74-4.85,2.21-6.23s3.7-2.08,6.69-2.08c1.08,0,2.05,.04,2.93,.11,.87,.07,1.65,.17,2.32,.29v5.12Z"/><path class="cls-1" d="M144.84,89.44c-.39,.3-.87,.65-1.45,1.07-.58,.42-1.12,.75-1.63,.99-.71,.32-1.45,.56-2.22,.72s-1.61,.23-2.52,.23c-2.15,0-3.95-.67-5.41-2s-2.18-3.03-2.18-5.1c0-1.65,.37-3.01,1.11-4.06,.74-1.05,1.79-1.88,3.15-2.48,1.35-.61,3.01-1.04,5-1.29,1.99-.26,4.06-.44,6.19-.56v-.12c0-1.25-.51-2.12-1.53-2.59-1.02-.48-2.53-.72-4.52-.72-1.2,0-2.47,.21-3.83,.64s-2.33,.75-2.93,.98h-.67v-5.47c.77-.2,2.01-.44,3.74-.72,1.73-.28,3.46-.41,5.19-.41,4.13,0,7.11,.64,8.95,1.91s2.75,3.27,2.75,5.98v15.41h-7.2v-2.4Zm0-3.53v-4.71c-.98,.08-2.04,.19-3.19,.33-1.14,.14-2.01,.31-2.6,.49-.73,.23-1.28,.56-1.66,1s-.57,1.01-.57,1.72c0,.47,.04,.85,.12,1.15,.08,.29,.28,.58,.6,.84,.31,.27,.68,.47,1.11,.59,.43,.13,1.1,.19,2.02,.19,.73,0,1.46-.15,2.21-.44,.75-.29,1.4-.68,1.97-1.17Z"/><path class="cls-1" d="M169.91,92.45c-1.98,0-3.78-.24-5.42-.71-1.63-.47-3.06-1.2-4.27-2.18-1.2-.98-2.12-2.22-2.78-3.71-.66-1.49-.99-3.24-.99-5.25,0-2.11,.35-3.93,1.06-5.47s1.69-2.8,2.96-3.81c1.22-.96,2.64-1.65,4.24-2.1s3.26-.67,4.98-.67c1.55,0,2.97,.17,4.28,.5,1.3,.34,2.52,.77,3.65,1.31v6.19h-1.03c-.28-.24-.62-.52-1.02-.85-.4-.32-.88-.64-1.46-.95-.55-.3-1.15-.54-1.81-.74-.66-.19-1.42-.29-2.3-.29-1.93,0-3.42,.62-4.46,1.85-1.04,1.23-1.56,2.9-1.56,5.01s.53,3.83,1.6,4.96c1.07,1.13,2.58,1.69,4.54,1.69,.91,0,1.74-.1,2.47-.31,.73-.21,1.34-.45,1.82-.74,.46-.27,.86-.55,1.21-.85,.35-.3,.67-.58,.97-.87h1.03v6.19c-1.14,.54-2.34,.97-3.58,1.28-1.24,.32-2.62,.47-4.13,.47Z"/><path class="cls-1" d="M204.67,81.86h-16.62c.11,1.78,.78,3.13,2.03,4.08s3.08,1.41,5.5,1.41c1.53,0,3.02-.28,4.46-.83,1.44-.55,2.58-1.14,3.41-1.78h.81v5.83c-1.64,.66-3.19,1.14-4.64,1.43-1.45,.3-3.06,.44-4.82,.44-4.55,0-8.03-1.02-10.45-3.07-2.42-2.04-3.63-4.96-3.63-8.74s1.15-6.7,3.44-8.89c2.29-2.19,5.44-3.28,9.43-3.28,3.69,0,6.46,.93,8.31,2.79,1.86,1.86,2.78,4.54,2.78,8.04v2.54Zm-7.22-4.26c-.04-1.52-.42-2.66-1.13-3.43-.71-.77-1.82-1.15-3.33-1.15-1.4,0-2.55,.36-3.45,1.09-.9,.73-1.41,1.89-1.51,3.49h9.42Z"/><path class="cls-1" d="M233.16,80.2c0,3.56-.98,6.47-2.95,8.72-1.97,2.25-4.42,3.37-7.36,3.37-1.26,0-2.37-.13-3.32-.4-.95-.27-1.86-.66-2.72-1.17l-.3,1.13h-6.98v-31.39h7.28v11.1c1.11-.89,2.25-1.61,3.42-2.16,1.16-.55,2.5-.83,4.02-.83,2.86,0,5.06,1.03,6.61,3.1,1.54,2.06,2.32,4.91,2.32,8.54Zm-7.48,.15c0-2.01-.34-3.57-1.03-4.65-.68-1.09-1.91-1.63-3.66-1.63-.69,0-1.39,.1-2.11,.31-.72,.21-1.42,.51-2.07,.9v11.36c.52,.19,1.02,.32,1.49,.38,.47,.07,1.03,.1,1.69,.1,1.92,0,3.35-.56,4.29-1.69s1.41-2.82,1.41-5.08Z"/><path class="cls-1" d="M261.26,80.52c0,3.73-1.09,6.66-3.26,8.81-2.17,2.15-5.22,3.22-9.15,3.22s-6.98-1.07-9.15-3.22c-2.17-2.15-3.26-5.08-3.26-8.81s1.09-6.7,3.28-8.84c2.19-2.14,5.23-3.21,9.13-3.21s7.01,1.08,9.17,3.23,3.24,5.09,3.24,8.82Zm-8.94,5.51c.47-.58,.82-1.27,1.06-2.09,.24-.81,.35-1.94,.35-3.38,0-1.33-.12-2.45-.36-3.35-.24-.9-.58-1.62-1.01-2.16-.43-.55-.95-.94-1.55-1.17-.6-.23-1.26-.34-1.96-.34s-1.32,.09-1.87,.28c-.54,.19-1.07,.56-1.56,1.13-.44,.52-.8,1.24-1.06,2.16s-.39,2.06-.39,3.45c0,1.24,.11,2.31,.34,3.22,.23,.91,.56,1.64,1.01,2.19,.43,.52,.94,.91,1.54,1.15,.6,.24,1.28,.36,2.05,.36,.66,0,1.29-.11,1.89-.33,.6-.22,1.11-.6,1.52-1.12Z"/><path class="cls-1" d="M289.24,80.52c0,3.73-1.09,6.66-3.26,8.81-2.17,2.15-5.22,3.22-9.15,3.22s-6.98-1.07-9.15-3.22c-2.17-2.15-3.26-5.08-3.26-8.81s1.09-6.7,3.28-8.84c2.19-2.14,5.23-3.21,9.13-3.21s7.01,1.08,9.17,3.23,3.24,5.09,3.24,8.82Zm-8.94,5.51c.47-.58,.82-1.27,1.06-2.09,.24-.81,.35-1.94,.35-3.38,0-1.33-.12-2.45-.36-3.35-.24-.9-.58-1.62-1.01-2.16-.43-.55-.95-.94-1.55-1.17-.6-.23-1.26-.34-1.96-.34s-1.32,.09-1.87,.28c-.54,.19-1.07,.56-1.56,1.13-.44,.52-.8,1.24-1.06,2.16s-.39,2.06-.39,3.45c0,1.24,.11,2.31,.34,3.22,.23,.91,.56,1.64,1.01,2.19,.43,.52,.94,.91,1.54,1.15,.6,.24,1.28,.36,2.05,.36,.66,0,1.29-.11,1.89-.33,.6-.22,1.11-.6,1.52-1.12Z"/><path class="cls-1" d="M317.91,91.84h-8.45l-6.35-9.85-1.96,2.42v7.44h-7.28v-31.39h7.28v18.73l7.8-9.99h8.38l-8.14,9.76,8.73,12.89Z"/></g><g><path class="cls-1" d="M377.23,48.89l-1.24,.39,.78,1.04c.36,.48,.55,1.04,.55,1.63,0,1.33-.95,2.46-2.27,2.67l-1.24,.21,.58,1.12c.2,.39,.3,.81,.3,1.25,0,1.43-1.11,2.61-2.54,2.7h-15.65s-1.94-.03-3.33-1.21c-.3-.26-.58-.44-.87-.57l-.34-.15v-14.47l1.63-1.4,5.51-10.21c.24-.4,.42-.83,.53-1.29,.11-.46,.15-.94,.11-1.42l-.44-5.73c.38-.22,.81-.33,1.25-.33,2.38,0,4.42,3.8,4.42,6.91,0,.43-.03,.87-.1,1.29l-.96,6.2h11.94c.76,0,1.52,.32,2.07,.87,.51,.52,.79,1.18,.79,1.86,0,.85-.4,1.63-1.08,2.14l-1.11,.84,1.21,.69c.85,.48,1.38,1.39,1.38,2.36,0,1.2-.77,2.24-1.9,2.59Z"/><path class="cls-3" d="M338.74,40.65s-.06,.03-.06,.05v21.28s.03,.05,.06,.05h12.26s.06-.03,.06-.05v-21.28s-.03-.05-.06-.05h-12.26Z"/><path class="cls-2" d="M380.97,46.3c0-1.24-.51-2.41-1.37-3.25,.62-.78,.96-1.75,.97-2.77,0-1.18-.46-2.3-1.32-3.17-.89-.9-2.12-1.42-3.37-1.42h-9.8l.63-4.09c.08-.52,.12-1.04,.12-1.57,0-4.04-2.73-8.75-6.25-8.75-1.02,0-2.01,.36-2.79,1.01l-.36,.3,.51,6.72c.02,.29,0,.57-.07,.85-.07,.28-.18,.54-.33,.78l-5.38,9.98-.2,.17c-.13-.91-.92-1.61-1.86-1.61h-10.44c-1.04,0-1.89,.85-1.89,1.89v19.69c0,1.04,.85,1.89,1.89,1.89h10.44c1.04,0,1.89-.85,1.89-1.89v-.99h.01c1.92,1.65,4.41,1.67,4.51,1.67h15.73c2.41-.14,4.3-2.13,4.3-4.55,0-.36-.04-.72-.13-1.07,1.64-.7,2.75-2.32,2.75-4.18,0-.61-.12-1.21-.36-1.77,1.33-.81,2.17-2.26,2.17-3.88Zm-30.83,14.77s-.03,.05-.05,.05h-10.44s-.05-.03-.05-.05v-19.69s.03-.05,.05-.05h10.44s.05,.03,.05,.05v19.69Zm27.09-12.18l-1.24,.39,.78,1.04c.36,.48,.55,1.04,.55,1.63,0,1.33-.95,2.46-2.27,2.67l-1.24,.21,.58,1.12c.2,.39,.3,.81,.3,1.25,0,1.43-1.11,2.61-2.54,2.7h-15.65s-1.94-.03-3.33-1.21c-.3-.26-.58-.44-.87-.57l-.34-.15v-14.47l1.63-1.4,5.51-10.21c.24-.4,.42-.83,.53-1.29,.11-.46,.15-.94,.11-1.42l-.44-5.73c.38-.22,.81-.33,1.25-.33,2.38,0,4.42,3.8,4.42,6.91,0,.43-.03,.87-.1,1.29l-.96,6.2h11.94c.76,0,1.52,.32,2.07,.87,.51,.52,.79,1.18,.79,1.86,0,.85-.4,1.63-1.08,2.14l-1.11,.84,1.21,.69c.85,.48,1.38,1.39,1.38,2.36,0,1.2-.77,2.24-1.9,2.59Z"/></g><path class="cls-1" d="M97.95,58.19c0-20.38-16.52-36.9-36.9-36.9S24.16,37.81,24.16,58.19c0,18.42,13.49,33.68,31.13,36.45v-25.78h-9.37v-10.67h9.37v-8.13c0-9.25,5.51-14.36,13.94-14.36,4.04,0,8.26,.72,8.26,.72v9.08h-4.65c-4.58,0-6.01,2.84-6.01,5.76v6.92h10.23l-1.64,10.67h-8.6v25.78c17.64-2.77,31.13-18.03,31.13-36.45Z"/></svg>