<svg xmlns="http://www.w3.org/2000/svg" viewBox="0 0 100 18"><defs><style>.cls-1{fill:#e71d1f;}.cls-2,.cls-3{fill:#fff;}.cls-3{fill-rule:evenodd;}</style></defs><g id="レイヤー_1" data-name="レイヤー 1"><rect class="cls-1" width="100" height="18"/><path class="cls-2" d="M28.27,12.34c0,.55,0,1.07-.7,1.07s-.75-.47-.75-1.07V8.94a12.72,12.72,0,0,1-3.55,1.3.68.68,0,0,1-.65-.77c0-.52.38-.62.73-.7a10.84,10.84,0,0,0,5.59-3.26A5.55,5.55,0,0,1,29.35,5a.64.64,0,0,1,.41-.14.79.79,0,0,1,.73.72.72.72,0,0,1-.22.49,12.61,12.61,0,0,1-2,1.88Z"/><path class="cls-2" d="M38.46,8.74c1.33,1.6,2.1,2.6,2.1,3.09a.72.72,0,0,1-.73.71c-.24,0-.42-.07-.72-.51A32.35,32.35,0,0,0,36,8c-.61-.64-.75-.65-1-.65-.39,0-.52.12-2.08,2a.73.73,0,0,1-1.31-.42c0-.21,0-.34,1-1.31.76-.74,1.18-1.14,1.51-1.41A1.41,1.41,0,0,1,35,5.8C35.69,5.8,36.36,6.19,38.46,8.74Zm.91-2.41a.43.43,0,0,1-.45.44c-.17,0-.27,0-.54-.52S38,5.66,38,5.47a.37.37,0,0,1,.38-.39.44.44,0,0,1,.15,0A1.92,1.92,0,0,1,39.37,6.33Zm1.19-.52a.43.43,0,0,1-.45.44c-.16,0-.28,0-.63-.67-.26-.49-.27-.57-.27-.68a.41.41,0,0,1,.41-.37.37.37,0,0,1,.16,0A2.07,2.07,0,0,1,40.56,5.81Z"/><path class="cls-2" d="M42.7,12.32a.61.61,0,0,1,.64-.65A7.25,7.25,0,0,0,48,9.86a5.94,5.94,0,0,0,1.52-2.53.58.58,0,0,1,.57-.43.69.69,0,0,1,.76.65,6.13,6.13,0,0,1-1.88,3.28A8.11,8.11,0,0,1,43.43,13,.65.65,0,0,1,42.7,12.32Zm2.59-4.19c-.28,0-.36-.07-1.14-.7L43,6.61a.66.66,0,0,1-.31-.55.73.73,0,0,1,.69-.77c.22,0,.32,0,1.34.78C46,7,46,7.2,46,7.45A.7.7,0,0,1,45.29,8.13Z"/><path class="cls-2" d="M55.33,12.44c0,.54,0,1.06-.69,1.06s-.76-.46-.76-1.06V5.86c0-.55,0-1.07.7-1.07s.75.47.75,1.07V7.52A20.75,20.75,0,0,1,58.56,8.6c.51.23.85.4.85.83a.67.67,0,0,1-.66.72c-.12,0-.16,0-1-.38a16.79,16.79,0,0,0-2.44-.85Z"/><path class="cls-2" d="M62.27,6.41s.45,0,.45.55a17.35,17.35,0,0,1-.23,2.19.47.47,0,0,1-.93-.1c0-.1.09-.54.1-.63s.14-1.4.16-1.58a.46.46,0,0,1,.31-.41Zm5,1.1V7.17H66.08c-.3,0-.78,0-.78-.39s.48-.4.78-.4h1.15V6.06H65.71c-.37,0-.8,0-.8-.49s.43-.48.8-.48h1.52a.48.48,0,0,1,.52-.52c.37,0,.57.13.6.52h1.48c.37,0,.8,0,.8.48s-.43.49-.8.49H68.35v.32H69.7c.31,0,.79,0,.79.4s-.48.39-.79.39H68.35v.34H70c.41,0,.8,0,.8.52s-.39.52-.8.52H65.9c-.45,0-.53,0-.69-.18a.48.48,0,0,1-.46.29c-.19,0-.43,0-.76-1.38V13c0,.42,0,.8-.53.8s-.59-.32-.59-.8V5.31c0-.42,0-.8.53-.8s.59.32.59.8v1a.53.53,0,0,1,.37-.15c.09,0,.35.06.46.47s.23.85.33,1.14c.13-.27.3-.27.75-.27Zm2,4.84H66.33v.57c0,.51,0,.8-.63.8s-.55-.37-.55-.8V9.67c0-.17.07-.81,1-.81h3.46a.79.79,0,0,1,.84.87v2.94c0,.62-.07,1.12-1.44,1.12-.82,0-1.25-.17-1.25-.58a.47.47,0,0,1,.46-.48c.11,0,.67.09.79.09s.28-.15.28-.28Zm-2.92-2.09h2.92v-.21c0-.16-.11-.2-.22-.2h-2.5c-.17,0-.2.06-.2.19Zm2.92.83H66.33v.43h2.92Z"/><path class="cls-2" d="M75.78,10.23v.53h.67c.41,0,.8,0,.8.53s-.33.6-.8.6h-.67V13c0,.42,0,.8-.54.8s-.6-.31-.6-.8V11.89h-.91c-.42,0-.8,0-.8-.54s.32-.59.8-.59h.91v-.53H73.56c-.43,0-.8,0-.8-.55s.29-.63.8-.63h.22c0-.06-.2-.8-.22-.91-.4,0-.8,0-.8-.53s.35-.56.8-.56h1.08V6.51h-.91c-.4,0-.8,0-.8-.52s.36-.56.8-.56h.91c0-.56,0-.91.54-.91s.6.28.6.91h.67c.4,0,.8,0,.8.52s-.36.56-.8.56h-.67v.54h1c.4,0,.8,0,.8.52s-.33.57-.59.57h-.11a9.16,9.16,0,0,1-.24.91c.45,0,.81,0,.81.55s-.29.63-.8.63Zm-.24-1.18c0-.12,0-.17.21-.91H74.62c.07.29.15.63.2.91Zm2.15-3.41a.8.8,0,0,1,.87-.82H80.8c1,0,1,.77,1,1.12a3.1,3.1,0,0,1-.44,1.65c-.11.12-.33.28-1,.28-.88,0-1.11-.23-1.11-.57s.1-.64.5-.64l.55.06c.17,0,.25,0,.29-.16A4.59,4.59,0,0,0,80.64,6c0-.09,0-.11-.2-.11H79c-.17,0-.21.06-.21.27V8.31h2.11c.34,0,1,0,1,.91a6.1,6.1,0,0,1-.84,2.61c.12.14.66.68.77.8a.71.71,0,0,1,.24.46.67.67,0,0,1-.58.64c-.36,0-.82-.49-1.15-.9-.17.18-.77.84-1.15.84a.47.47,0,0,1-.39-.21.48.48,0,0,1-.5.32c-.6,0-.6-.31-.6-.8Zm1.13,7a4.7,4.7,0,0,0,.86-.8,9.22,9.22,0,0,1-.86-2.14Zm1-3.34a10.92,10.92,0,0,0,.54,1.42,3.27,3.27,0,0,0,.37-1.24c0-.16,0-.18-.21-.18Z"/><path class="cls-3" d="M11.66,5.05a.47.47,0,0,1,.44-.61.46.46,0,0,1,.43.32l2.69,6.75a.46.46,0,0,1-.29.58.45.45,0,0,1-.57-.29,6.4,6.4,0,0,0-3.72.1L12,14a.38.38,0,0,1-.19.56l-.9.3a.63.63,0,0,1-.19,0,.58.58,0,0,1-.45-.21l-1.82-2a2,2,0,0,1-2.49-1A1.9,1.9,0,0,1,5.8,11,2,2,0,0,1,7,9.24c4-2,4.68-4.19,4.68-4.19m2.87.43a3,3,0,0,1,1.62,4l.7.29a3.73,3.73,0,0,0,.3-1.48,3.82,3.82,0,0,0-2.32-3.51ZM14,6.67a1.77,1.77,0,0,1,.94,1A1.73,1.73,0,0,1,15,9l.68.29A2.49,2.49,0,0,0,14.32,6Z"/><polygon class="cls-2" points="89.7 6.98 92.01 8.31 94.31 9.65 92.01 10.98 89.7 12.31 89.7 9.65 89.7 6.98"/></g></svg>