<svg id="レイヤー_1" data-name="レイヤー 1" xmlns="http://www.w3.org/2000/svg" viewBox="0 0 140 140"><defs><style>.cls-1{fill:#386fb6;}.cls-2{fill:#fff;}</style></defs><title>アートボード 6</title><circle class="cls-1" cx="70.2" cy="70.08" r="70"/><path class="cls-2" d="M89.25,44.81A18.57,18.57,0,0,0,70.68,63.38a18.57,18.57,0,0,0-37.14,0c0,9.65,4.54,28.06,31.71,40.08,1.72.76,5.18,2.1,5.18,2.1a.74.74,0,0,0,.25,0,.7.7,0,0,0,.25,0s3.47-1.34,5.18-2.1c27.17-12,31.72-30.43,31.72-40.08A18.57,18.57,0,0,0,89.25,44.81Z"/></svg>