<svg id="レイヤー_1" data-name="レイヤー 1" xmlns="http://www.w3.org/2000/svg" viewBox="0 0 140 140"><defs><style>.cls-1{fill:#fff;}.cls-2{fill:#386fb6;}</style></defs><title>アートボード 3</title><circle class="cls-1" cx="70.18" cy="70.14" r="68.07"/><path class="cls-2" d="M70.18,4A66.13,66.13,0,1,1,4.05,70.14,66.2,66.2,0,0,1,70.18,4m0-3.87a70,70,0,1,0,70,70,70,70,0,0,0-70-70Z"/><polygon class="cls-1" points="41 74.59 31.67 77.69 31.67 62.59 41 65.7 87.18 50.3 87.18 89.98 41 74.59"/><path class="cls-2" d="M85.25,53v34.3L42.22,73,41,72.55,39.78,73,33.61,75V65.27l6.17,2.06,1.22.41,1.23-.41L85.25,53m3.87-5.37L41,63.66,29.74,59.9V80.38L41,76.63l48.12,16v-45Z"/><rect class="cls-1" x="95.26" y="68.26" width="15.36" height="3.76"/><polygon class="cls-2" points="110.62 68.26 95.26 68.26 95.26 72.02 110.62 72.02 110.62 68.26 110.62 68.26"/><rect class="cls-1" x="94.24" y="52.9" width="15.36" height="3.76" transform="translate(-13.74 58.29) rotate(-30)"/><polygon class="cls-2" points="107.62 49.31 94.33 56.99 96.21 60.25 109.5 52.57 107.62 49.31 107.62 49.31"/><rect class="cls-1" x="100.03" y="76.79" width="3.76" height="15.36" transform="translate(-22.2 130.5) rotate(-60)"/><polygon class="cls-2" points="96.21 79 94.33 82.26 107.62 89.94 109.5 86.68 96.21 79 96.21 79"/></svg>